<svg id="Capa_1" enable-background="new 0 0 512 512" height="512" viewBox="0 0 512 512" width="512" fill="#3D8292" xmlns="http://www.w3.org/2000/svg"><g><path d="m151 240h60v30h-60z"/><path d="m301 240h60v30h-60z"/><path d="m211 362h90v30h-90z"/><path d="m331 512v-78.363c39.747-20.763 71.227-58.22 83.874-103.637h6.126c33.084 0 60-26.916 60-60s-26.916-60-60-60v-45c0-90.981-74.019-165-165-165s-165 74.019-165 165v45c-33.084 0-60 26.916-60 60s26.916 60 60 60h6.126c12.621 45.324 44.038 82.828 83.874 103.637v78.363zm-30-30h-90v-36.337c14.47 4.173 29.578 6.337 45 6.337s30.53-2.164 45-6.337zm150-212c0 16.542-13.458 30-30 30h-.675c.441-4.962.675-9.964.675-15v-45c16.542 0 30 13.458 30 30zm-360 30c-16.542 0-30-13.458-30-30s13.458-30 30-30v45c0 5.036.234 10.038.675 15zm30-15v-105h13.928l25.607 25.607 21.213-21.213-34.393-34.394h-25.517c1.155-10.399 3.495-20.445 6.884-30h31.065l90 90h51.213v-30h-38.787l-90-90h-28.408c16.06-23.945 39.575-42.484 67.195-52.278v43.491l68.787 68.787h51.213v-30h-38.787l-51.213-51.213v-37.949c4.927-.547 9.93-.838 15-.838 15.772 0 30.918 2.728 45 7.722v52.278h30v-37.194c36.154 24.247 60 65.487 60 112.194v15h-45v30h45v75c0 75.542-60.561 137-135 137s-135-61.458-135-137z"/></g></svg>